<svg fill="none" height="18" viewBox="0 0 21 18" width="21" xmlns="http://www.w3.org/2000/svg"><path d="m19.3764 9.27081c2.1648-2.12445 2.1648-5.57405 0-7.67747-2.1649-2.124453-5.68-2.124453-7.8449 0l-1.0503 1.05171-1.05022-1.03068c-2.16484-2.145483-5.68002-2.145483-7.82343-.02103-1.050265 1.03067-1.60755 2.3979-1.60755 3.84925 0 1.45136.578719 2.81858 1.60755 3.84926l8.87365 8.70815zm-18.00462-3.82822c0-1.09377.42868-2.10341 1.22174-2.86064.81449-.7993 1.86476-1.19895 2.91503-1.19895s2.10053.39965 2.91503 1.19895l2.05762 1.99824 2.0577-2.01928c1.6076-1.577562 4.244-1.577562 5.8301 0 .7716.75723 1.2217 1.76687 1.2217 2.86065s-.4287 2.10342-1.2217 2.86065l-7.8878 7.76159-7.88768-7.74056c-.77163-.77826-1.22174-1.7879-1.22174-2.86065z" fill="#000"/></svg>